<?xml version="1.0" standalone="no"?>
<!DOCTYPE svg PUBLIC "-//W3C//DTD SVG 20010904//EN"
 "http://www.w3.org/TR/2001/REC-SVG-20010904/DTD/svg10.dtd">
<svg version="1.0" xmlns="http://www.w3.org/2000/svg"
 width="512.000000pt" height="512.000000pt" viewBox="0 0 512.000000 512.000000"
 preserveAspectRatio="xMidYMid meet">

<g transform="translate(0.000000,512.000000) scale(0.100000,-0.100000)"
fill="#000000" stroke="none">
<path d="M4915 4508 c-2 -7 -6 -35 -10 -61 -17 -128 -101 -380 -177 -531 -157
-313 -422 -601 -733 -800 -117 -75 -360 -194 -502 -245 -323 -117 -762 -194
-1148 -202 l-90 -2 -5 528 -5 527 -1102 -833 c-606 -459 -1101 -837 -1100
-841 1 -4 497 -383 1102 -841 l1100 -834 3 534 2 533 84 0 c106 0 337 24 486
51 721 128 1281 460 1678 996 295 397 500 922 581 1488 39 271 53 522 29 529
-7 3 -53 7 -101 10 -66 5 -89 3 -92 -6z m-121 -915 c-15 -62 -85 -276 -120
-364 -201 -513 -518 -911 -941 -1182 -408 -261 -962 -407 -1550 -407 l-133 0
-2 -429 -3 -429 -830 629 c-456 346 -831 632 -832 636 -2 7 1637 1253 1658
1261 5 2 9 -181 9 -424 l0 -427 243 6 c354 9 651 46 945 118 646 158 1180 500
1502 962 30 42 55 77 57 77 2 0 0 -12 -3 -27z"/>
</g>
</svg>
