<?xml version="1.0" standalone="no"?>
<!DOCTYPE svg PUBLIC "-//W3C//DTD SVG 20010904//EN"
 "http://www.w3.org/TR/2001/REC-SVG-20010904/DTD/svg10.dtd">
<svg version="1.0" xmlns="http://www.w3.org/2000/svg"
 width="512.000000pt" height="512.000000pt" viewBox="0 0 512.000000 512.000000"
 preserveAspectRatio="xMidYMid meet">

<g transform="translate(0.000000,512.000000) scale(0.100000,-0.100000)"
fill="#000000" stroke="none">
<path d="M2870 4215 l0 -535 -84 0 c-106 0 -337 -24 -486 -51 -721 -128 -1281
-460 -1678 -996 -295 -397 -500 -922 -581 -1488 -35 -242 -52 -517 -33 -528 4
-3 49 -6 101 -8 l94 -4 13 74 c37 219 133 466 260 672 160 258 385 484 649
653 117 75 360 194 502 245 323 117 762 194 1148 202 l90 2 5 -528 5 -527
1102 833 c606 459 1101 837 1100 841 -1 4 -389 301 -862 659 -473 359 -969
734 -1102 836 l-243 184 0 -536z m1053 -519 c449 -341 817 -622 817 -625 -1
-6 -1646 -1254 -1661 -1259 -5 -2 -9 181 -9 424 l0 427 -242 -6 c-355 -9 -652
-46 -946 -118 -642 -157 -1165 -491 -1495 -952 -31 -44 -60 -83 -63 -86 -16
-16 69 255 122 390 201 513 518 911 941 1182 408 261 962 407 1551 407 l132 0
0 431 c0 413 1 430 18 417 10 -7 386 -292 835 -632z"/>
</g>
</svg>
