<?xml version="1.0" standalone="no"?>
<!DOCTYPE svg PUBLIC "-//W3C//DTD SVG 20010904//EN"
 "http://www.w3.org/TR/2001/REC-SVG-20010904/DTD/svg10.dtd">
<svg version="1.0" xmlns="http://www.w3.org/2000/svg"
 width="2304.000000pt" height="2680.000000pt" viewBox="0 0 2304.000000 2680.000000"
 preserveAspectRatio="xMidYMid meet">

<g transform="translate(0.000000,2680.000000) scale(0.100000,-0.100000)"
fill="#000000" stroke="none">
<path d="M12335 25769 c-12 -34 -36 -201 -45 -323 -11 -136 -3 -334 20 -473
17 -102 65 -282 105 -388 69 -187 236 -495 303 -563 34 -33 118 -92 133 -92
11 0 -25 122 -86 295 -83 233 -89 259 -89 370 0 94 28 265 43 265 6 0 42 -105
262 -778 l103 -313 33 52 c70 111 102 264 103 484 0 163 -9 262 -41 425 -20
108 -71 286 -94 330 -12 23 -105 114 -580 569 -161 155 -164 156 -170 140z"/>
<path d="M9130 24510 c1 -63 28 -323 45 -420 83 -485 279 -847 614 -1133 126
-107 207 -167 199 -146 -3 8 -85 217 -181 464 l-174 450 -138 225 c-76 124
-172 281 -215 350 -42 69 -93 152 -113 185 l-37 59 0 -34z"/>
<path d="M15031 24399 c-552 -142 -1070 -545 -1275 -991 -35 -74 -82 -216 -74
-223 4 -4 43 23 478 325 146 101 283 196 305 211 68 47 722 709 700 708 -11 0
-72 -14 -134 -30z"/>
<path d="M18162 24274 c-358 -120 -652 -474 -799 -959 -82 -272 -93 -616 -28
-883 29 -119 87 -282 93 -262 20 63 377 1106 392 1145 10 28 19 46 19 41 1 -5
-35 -197 -79 -427 -44 -230 -80 -422 -80 -426 1 -15 24 55 472 1501 49 158 88
290 86 292 -2 1 -36 -8 -76 -22z"/>
<path d="M11030 23799 c-91 -16 -191 -49 -272 -90 -43 -22 -78 -42 -78 -46 0
-17 77 -144 120 -198 272 -341 906 -673 1321 -693 94 -4 114 -2 194 23 l88 27
-144 47 c-195 64 -295 114 -414 204 -126 96 -269 217 -255 217 9 0 614 -251
1065 -442 129 -55 121 -58 75 30 -203 389 -768 797 -1255 907 -85 19 -367 28
-445 14z"/>
<path d="M7175 23755 c-136 -21 -205 -44 -330 -105 -201 -99 -213 -79 122
-199 158 -57 429 -155 602 -218 173 -62 315 -112 317 -110 3 2 -56 46 -130 98
-74 51 -134 95 -132 96 1 2 277 -76 612 -172 335 -96 613 -175 617 -175 15 0
-54 81 -168 198 -417 430 -1023 665 -1510 587z"/>
<path d="M16460 23326 c-279 -116 -435 -273 -540 -542 -161 -411 -190 -939
-74 -1348 25 -89 103 -268 121 -279 5 -3 28 78 52 191 23 108 63 289 87 402
39 179 89 409 126 578 6 28 13 51 14 49 3 -3 -33 -598 -50 -827 -7 -95 0 -61
109 550 53 294 111 621 130 725 19 105 46 255 60 335 14 80 27 155 30 168 7
27 4 27 -65 -2z"/>
<path d="M20255 23183 c-476 -41 -1028 -305 -1292 -616 -28 -34 -51 -62 -50
-63 1 -1 160 31 352 72 505 107 865 184 900 191 l30 6 -35 -37 c-50 -54 -165
-128 -255 -165 -87 -37 -234 -76 -470 -125 l-160 -33 55 -26 c97 -46 165 -59
337 -64 171 -6 285 4 453 38 278 57 579 175 773 304 51 34 57 43 107 153 29
64 54 122 57 129 7 17 -98 90 -201 138 -172 82 -387 117 -601 98z"/>
<path d="M11737 22253 c-58 -114 -124 -253 -147 -308 -89 -210 -158 -447 -180
-629 -17 -136 -8 -376 19 -484 22 -87 79 -242 90 -242 4 0 46 136 94 303 49
166 107 366 130 444 23 79 46 142 51 140 5 -2 15 -19 22 -38 l12 -34 2 35 c3
79 17 1015 14 1018 -1 2 -49 -90 -107 -205z"/>
<path d="M4506 22318 c-29 -206 -56 -557 -56 -736 0 -133 21 -351 45 -462 38
-182 120 -374 213 -505 60 -83 128 -162 134 -155 3 3 -3 158 -14 345 -10 187
-17 355 -15 374 1 21 51 -156 131 -472 71 -279 130 -506 132 -505 5 7 -16 564
-26 645 -17 149 -52 290 -90 365 -14 25 -151 198 -158 198 -2 0 -1 -39 3 -87
4 -49 5 -86 2 -83 -3 3 -69 255 -147 560 -78 305 -143 556 -144 558 -2 2 -6
-16 -10 -40z"/>
<path d="M9142 22102 c-93 -126 -186 -358 -231 -579 -70 -341 -65 -752 11
-978 26 -79 103 -226 131 -253 l23 -21 84 457 c56 300 86 443 88 417 2 -22 -4
-296 -13 -610 -9 -313 -16 -583 -14 -598 4 -27 8 -23 60 55 247 373 402 950
368 1366 -15 194 -54 311 -133 405 -29 34 -77 94 -108 132 -127 160 -210 260
-216 262 -4 2 -26 -23 -50 -55z"/>
<path d="M2015 21883 c33 -194 133 -363 329 -558 235 -233 525 -408 861 -519
108 -35 294 -80 301 -73 6 5 -214 191 -290 246 -114 83 -169 136 -293 284
-137 163 -137 160 -13 132 159 -37 320 -104 440 -184 30 -19 161 -134 292
-253 131 -120 238 -216 238 -213 0 2 -11 33 -24 67 -79 211 -238 440 -452 650
-181 178 -113 151 -781 315 -322 78 -592 143 -600 143 -11 0 -12 -9 -8 -37z"/>
<path d="M6409 21423 c-218 -277 -396 -684 -460 -1053 -19 -109 -17 -386 4
-477 19 -83 68 -215 95 -255 l18 -27 123 455 c69 249 126 452 128 451 2 -2
-35 -286 -82 -632 -47 -345 -84 -629 -82 -631 6 -6 168 183 233 271 180 244
315 541 374 820 27 128 38 393 21 520 -30 228 -68 315 -211 491 l-108 134 -53
-67z"/>
<path d="M11831 21085 c1 -254 2 -277 15 -247 31 71 45 149 45 253 0 59 -3
120 -6 135 -10 42 -37 118 -47 129 -4 5 -8 -117 -7 -270z"/>
<path d="M13461 21068 c-3 -579 -107 -934 -406 -1383 -114 -171 -101 -154
-336 -460 -192 -250 -209 -277 -371 -564 -105 -186 -197 -333 -217 -345 -5 -4
-109 193 -232 436 -360 719 -444 874 -621 1158 -133 212 -622 960 -625 956 -7
-7 61 -162 148 -336 106 -213 169 -323 456 -805 105 -176 217 -369 250 -430
137 -249 291 -579 343 -735 l22 -65 -157 -725 c-301 -1396 -426 -1976 -442
-2052 -16 -78 -16 -78 -48 -78 -60 0 -199 58 -295 123 -274 186 -673 645 -962
1109 l-76 123 -172 535 c-95 294 -240 748 -323 1007 -84 260 -153 470 -154
465 -1 -4 58 -369 131 -812 74 -443 131 -808 127 -812 -21 -23 -451 38 -683
97 -492 125 -921 297 -1888 759 -212 101 -387 182 -390 180 -2 -3 23 -29 55
-59 44 -39 144 -100 370 -224 349 -191 526 -279 830 -409 570 -244 1008 -382
1449 -457 215 -36 283 -58 337 -107 52 -48 110 -132 180 -261 137 -250 212
-364 468 -712 346 -470 507 -771 565 -1055 52 -253 49 -472 -13 -996 -43 -362
-46 -593 -11 -795 16 -90 23 -99 54 -70 33 31 89 140 114 221 64 209 100 646
88 1075 -8 274 -24 669 -31 741 l-5 51 103 33 c293 93 418 197 493 410 40 116
186 664 466 1747 29 111 54 201 56 199 8 -9 34 -380 35 -511 2 -198 6 -184
-207 -728 -71 -182 -125 -355 -153 -494 -26 -130 -23 -357 5 -487 24 -108 28
-205 10 -239 -16 -32 -104 -139 -188 -232 -196 -216 -263 -351 -360 -728 -80
-312 -100 -465 -80 -632 9 -78 67 -380 105 -544 6 -22 7 -23 25 -6 35 32 80
110 105 185 34 100 52 240 70 545 27 462 70 661 190 895 84 161 180 273 392
456 386 331 937 701 1361 914 707 354 1461 545 2607 660 161 16 713 65 1210
108 l80 7 -60 6 c-33 4 -244 10 -470 14 -1157 21 -1905 -106 -2857 -486 -208
-83 -487 -205 -913 -402 -639 -294 -998 -457 -1007 -457 -28 0 22 310 86 530
57 195 125 368 230 585 216 446 500 873 1000 1505 323 408 361 454 450 547
284 297 1151 1063 1571 1388 133 103 787 625 783 625 -14 0 -129 -50 -226 -99
-760 -381 -1812 -1330 -3186 -2875 l-311 -350 -8 70 c-12 95 -2 382 16 479 35
185 93 371 179 564 91 206 171 350 505 901 236 390 342 610 397 830 41 161 41
230 2 645 l-34 370 -1 -237z"/>
<path d="M19423 20878 c-126 -143 -200 -218 -250 -254 l-72 -52 53 -50 c133
-126 362 -192 721 -206 77 -4 191 -9 252 -12 l113 -5 -6 33 c-34 201 -62 280
-139 376 -25 32 -73 81 -108 108 -67 54 -350 252 -372 260 -8 3 -85 -76 -192
-198z"/>
<path d="M11793 20698 c-26 -75 -23 -241 5 -323 l20 -60 1 218 c1 119 -1 217
-3 217 -3 0 -13 -24 -23 -52z"/>
<path d="M7156 20533 c48 -330 378 -760 804 -1047 105 -71 296 -167 393 -197
84 -25 190 -49 196 -44 2 3 -52 66 -120 142 -202 225 -480 536 -508 568 -34
38 -18 27 154 -116 412 -341 825 -679 829 -679 2 0 -2 28 -10 63 -68 293 -225
566 -496 860 l-63 67 -245 91 c-135 50 -285 106 -335 124 -49 18 -202 74 -339
124 -136 50 -253 91 -258 91 -5 0 -6 -19 -2 -47z"/>
<path d="M16680 20486 c0 -6 133 -56 145 -55 8 0 -133 59 -142 59 -2 0 -3 -2
-3 -4z"/>
<path d="M17030 20367 c13 -14 509 -193 499 -181 -20 25 -124 83 -194 109 -83
31 -320 87 -305 72z"/>
<path d="M16850 20208 c5 -5 175 -93 900 -461 l366 -186 152 137 c95 86 147
139 139 143 -17 10 -817 309 -825 309 -4 0 3 -7 15 -15 29 -20 156 -166 150
-172 -4 -4 -821 222 -887 245 -8 3 -13 3 -10 0z"/>
<path d="M3670 19384 c-236 -16 -467 -64 -657 -135 -302 -114 -475 -234 -591
-412 -48 -73 -122 -243 -136 -313 l-7 -31 92 -12 c205 -26 321 -33 479 -28
421 15 755 127 1060 356 112 84 238 197 229 205 -3 3 -205 -35 -449 -84 -244
-50 -450 -90 -459 -89 -9 0 34 18 94 39 131 45 907 311 1018 348 42 14 77 29
77 33 0 9 -80 42 -162 68 -129 39 -420 66 -588 55z"/>
<path d="M16902 18929 c-202 -26 -437 -115 -612 -232 -378 -251 -647 -651
-749 -1113 -18 -79 -41 -234 -35 -234 1 0 127 127 281 283 557 564 605 612
598 599 -4 -7 -113 -172 -242 -365 -129 -194 -220 -336 -203 -317 17 19 110
132 205 250 96 118 225 278 287 355 63 77 190 235 283 350 93 116 209 258 257
317 48 59 88 110 88 113 0 7 -82 4 -158 -6z"/>
<path d="M18910 18699 c-451 -43 -867 -271 -1180 -649 -152 -184 -289 -445
-329 -627 -6 -32 -6 -41 3 -36 6 4 71 50 145 102 73 53 150 108 170 122 20 14
188 134 373 267 186 133 340 242 342 242 3 0 -88 -91 -202 -202 -463 -453
-466 -452 72 -11 274 224 513 419 530 433 125 98 416 343 416 351 0 5 -22 9
-48 9 -27 0 -82 2 -123 4 -41 3 -117 0 -169 -5z"/>
<path d="M5340 18509 c-560 -64 -1056 -324 -1340 -704 -74 -99 -168 -281 -209
-402 -31 -94 -75 -301 -69 -328 2 -12 552 430 1223 984 39 31 179 146 313 255
133 109 242 200 242 202 0 6 -75 3 -160 -7z"/>
<path d="M6304 17623 c-271 -204 -482 -510 -608 -885 -65 -193 -96 -351 -103
-538 -9 -244 28 -433 113 -577 43 -71 150 -182 162 -168 5 6 14 35 20 65 6 30
63 289 126 575 63 286 162 736 220 1000 58 264 110 498 115 520 6 21 9 41 7
42 -2 2 -25 -13 -52 -34z"/>
<path d="M19440 16564 c472 -260 586 -324 580 -324 -3 0 -180 58 -394 130
-215 71 -391 128 -393 127 -1 -2 75 -38 170 -80 94 -42 294 -130 442 -195 668
-296 981 -435 1000 -444 12 -6 16 -7 10 -1 -5 6 -107 63 -225 128 -118 65
-297 163 -398 218 -111 61 -178 103 -170 108 29 18 -158 221 -273 295 -109 71
-198 104 -454 168 -77 19 -167 44 -199 56 -33 11 -62 20 -65 20 -3 0 163 -93
369 -206z"/>
<path d="M17610 16315 c0 -1 39 -31 88 -66 163 -117 337 -257 389 -312 61 -64
131 -169 168 -253 31 -69 81 -219 91 -272 7 -35 6 -36 -12 -21 -25 21 -620
534 -664 573 -36 31 91 -101 421 -439 102 -104 270 -278 375 -385 455 -469
478 -491 486 -473 11 28 9 283 -3 370 -35 260 -141 478 -318 653 -156 154
-308 255 -671 445 -336 176 -350 183 -350 180z"/>
<path d="M15820 16159 c38 -73 96 -163 191 -295 200 -279 259 -446 246 -707
-3 -67 -9 -132 -13 -145 l-7 -23 -16 28 c-10 15 -90 170 -179 344 -88 173
-181 353 -206 399 l-44 83 -11 -39 c-5 -21 -20 -85 -31 -142 -22 -102 -22
-105 -5 -225 20 -138 51 -265 96 -394 78 -221 175 -359 470 -668 74 -78 167
-176 207 -219 41 -43 75 -76 77 -74 6 5 73 327 90 428 25 151 30 368 11 476
-30 175 -108 329 -260 519 -70 87 -623 695 -632 695 -2 0 5 -18 16 -41z"/>
<path d="M9366 14196 c-58 -22 -86 -46 -112 -97 -41 -77 -54 -174 -61 -444
l-6 -250 31 -89 c18 -49 33 -91 35 -93 10 -9 56 21 66 44 20 44 41 206 40 313
-1 82 6 140 31 260 18 85 35 167 37 183 3 15 9 27 14 27 4 0 25 -30 46 -67 36
-65 38 -74 44 -183 7 -133 29 -208 130 -438 l62 -144 18 24 c10 12 32 79 49
148 43 178 40 287 -16 636 l-26 162 -42 5 c-23 3 -100 9 -171 12 -101 4 -139
2 -169 -9z"/>
<path d="M9662 13156 c-48 -39 -99 -101 -158 -193 -21 -35 -42 -63 -46 -63 -6
0 -117 129 -176 204 l-22 29 -62 -69 c-33 -38 -98 -105 -143 -149 l-83 -80 43
-120 c24 -66 49 -136 58 -155 8 -19 18 -57 21 -85 4 -27 16 -97 26 -155 14
-78 20 -176 25 -385 7 -314 22 -632 33 -685 10 -47 32 -44 49 5 34 96 112 497
194 995 18 107 35 198 38 202 3 4 50 -43 104 -103 l99 -110 86 3 87 3 3 30
c10 98 61 169 175 247 31 21 57 43 57 47 0 5 -7 28 -16 52 -15 43 -15 81 2
180 l6 36 -78 42 c-44 24 -94 54 -112 68 -31 24 -32 26 -17 43 11 12 14 26 10
40 -8 26 -133 160 -149 160 -6 0 -30 -16 -54 -34z"/>
<path d="M10758 13035 l-97 -152 -225 -6 c-138 -4 -234 -11 -250 -18 -25 -12
-26 -16 -26 -88 0 -42 -3 -99 -6 -127 l-6 -50 123 -54 c253 -109 448 -218 527
-293 l32 -31 113 112 113 113 65 -10 c74 -12 209 -14 225 -3 6 4 14 54 18 112
4 58 16 168 26 245 11 77 20 146 20 155 0 8 -23 43 -51 76 l-51 61 -50 -9
c-70 -13 -89 -27 -169 -134 -83 -110 -139 -202 -162 -265 -12 -31 -27 -50 -45
-59 -34 -16 -132 -50 -144 -50 -4 0 33 62 83 137 119 178 143 229 143 314 1
55 -3 72 -26 107 -16 23 -40 48 -55 56 l-28 14 -97 -153z"/>
<path d="M11431 12460 c-132 -222 -132 -260 -6 -518 151 -311 296 -540 606
-962 182 -246 259 -376 293 -489 22 -76 21 -188 -4 -260 -18 -56 -59 -135 -65
-129 -2 2 -17 68 -34 147 l-30 143 -78 87 c-252 278 -436 524 -585 781 -30 52
-112 205 -181 340 -69 135 -157 301 -196 370 -39 68 -75 138 -81 155 -9 28
-15 32 -49 33 -22 1 -51 6 -66 12 -14 5 -28 10 -30 10 -6 0 -20 -234 -17 -275
6 -64 83 -209 275 -515 242 -385 568 -852 685 -982 l33 -37 -28 -14 c-51 -27
-825 -363 -1023 -445 -227 -94 -927 -378 -983 -398 l-39 -14 7 333 c8 356 1
471 -36 609 -21 78 -96 225 -114 221 -5 -1 -43 -161 -84 -355 l-73 -353 0
-240 c1 -132 2 -259 4 -283 l3 -43 -69 -29 c-38 -16 -71 -28 -73 -26 -2 1 -10
140 -18 307 -31 621 -73 929 -150 1094 l-32 70 -6 -45 c-4 -25 -14 -169 -22
-320 -53 -951 -62 -1005 -219 -1387 -56 -136 -28 -186 167 -299 l77 -45 0
-232 c-1 -440 -23 -807 -54 -882 -29 -68 -113 -127 -200 -139 l-48 -8 4 -41
c10 -83 70 -289 81 -278 17 17 42 13 62 -9 10 -12 34 -30 54 -42 31 -20 35
-20 45 -5 8 13 14 6 33 -40 l23 -56 0 -636 0 -636 -115 -58 c-116 -57 -170
-98 -226 -169 l-31 -38 59 -72 c98 -121 177 -194 230 -214 90 -32 83 7 86
-489 l2 -440 -28 -60 c-22 -47 -61 -93 -189 -221 l-160 -162 99 -55 c54 -30
129 -66 167 -79 45 -15 74 -31 85 -48 14 -22 16 -114 19 -943 2 -760 0 -917
-11 -910 -7 4 -179 143 -381 308 -203 165 -382 311 -399 325 -25 20 21 -77
247 -523 152 -301 275 -547 273 -547 -3 0 -33 50 -67 112 -137 245 -295 452
-418 550 -41 32 -76 57 -78 55 -2 -2 39 -138 91 -303 52 -164 95 -304 95 -311
0 -10 -156 59 -445 196 -44 21 -82 37 -83 35 -2 -1 78 -177 177 -390 99 -213
180 -389 178 -390 -1 -1 -96 56 -212 128 -274 169 -247 157 -230 106 56 -173
136 -441 132 -445 -3 -2 -74 -25 -159 -49 l-153 -46 -51 -56 c-28 -31 -79 -77
-113 -101 -33 -25 -60 -46 -58 -47 1 -1 180 31 397 72 1162 219 1530 259 2350
258 564 -1 891 -18 1264 -65 257 -32 418 -65 835 -170 350 -88 701 -166 831
-183 l45 -6 -25 21 c-14 11 -112 91 -218 177 -156 126 -192 160 -188 177 10
45 29 236 23 241 -3 4 -54 -10 -113 -30 -59 -20 -109 -34 -111 -32 -2 2 25 79
60 172 36 93 63 170 62 172 -1 1 -59 -17 -128 -40 l-126 -43 -21 21 -21 21 82
179 c112 246 160 356 157 359 -2 2 -75 -53 -163 -122 -88 -68 -195 -151 -237
-184 l-77 -60 -46 63 c-69 93 -96 154 -160 353 -68 213 -117 332 -172 412
l-40 59 87 713 c48 392 91 716 96 721 5 5 99 56 208 114 110 58 203 109 208
114 5 5 -45 64 -112 134 -66 69 -120 132 -120 140 0 8 23 70 51 139 28 68 97
239 154 379 181 447 241 575 294 633 21 23 33 27 77 27 28 0 74 4 103 10 66
12 201 68 201 83 0 7 -32 92 -71 190 l-71 178 260 547 c143 301 279 592 303
646 23 54 56 120 73 145 l31 46 78 7 c88 8 149 37 232 110 71 63 105 114 105
159 0 58 -42 98 -173 165 -62 31 -113 58 -114 59 -5 3 -23 345 -33 640 -24
679 -45 884 -122 1159 -58 210 -144 397 -294 637 -89 142 -140 244 -154 301
-8 38 -6 49 15 91 14 27 25 64 25 83 0 31 -34 140 -49 157 -4 4 -91 31 -193
60 -102 30 -199 64 -216 76 -18 12 -73 77 -123 144 -51 67 -149 194 -218 282
-265 336 -326 430 -570 880 -112 208 -157 281 -194 318 -79 77 -79 77 -126 -3z
m1404 -2635 c82 -137 184 -311 228 -385 281 -476 335 -657 307 -1040 -10 -137
-91 -820 -106 -892 l-5 -27 -196 -3 c-107 -2 -196 -1 -198 2 -1 3 12 241 31
530 55 870 55 1050 3 1182 -11 27 -50 98 -88 157 -38 59 -84 132 -102 162 -77
129 -259 523 -247 535 4 3 48 23 100 44 l93 39 16 -27 c9 -15 83 -139 164
-277z m-645 118 c0 -5 4 -33 9 -63 34 -203 264 -1613 269 -1644 4 -35 3 -39
-14 -34 -10 3 -338 103 -729 223 -390 119 -843 257 -1005 307 -162 49 -382
116 -488 149 -106 32 -194 59 -196 59 -2 0 -6 -64 -10 -143 -14 -301 4 -317
499 -462 477 -139 805 -241 1297 -406 569 -190 594 -195 642 -139 23 28 46 86
46 119 0 8 2 12 5 9 5 -5 76 -421 72 -424 -5 -4 -2394 17 -2563 22 l-191 6 -7
207 c-3 113 -7 451 -8 750 l-1 544 599 239 c812 324 1738 684 1767 687 4 1 7
-2 7 -6z m-2190 -3043 c40 -113 77 -211 84 -217 9 -10 1100 -543 1111 -543 1
0 90 -42 196 -94 166 -81 195 -92 201 -78 3 9 36 89 72 176 36 88 66 165 66
171 0 7 -96 58 -212 113 -226 107 -232 110 -878 417 -228 109 -428 203 -444
210 -35 15 236 22 1139 30 319 3 687 8 818 11 172 4 237 3 237 -5 0 -6 -125
-246 -279 -534 -493 -924 -448 -846 -484 -851 -18 -3 -414 -14 -882 -26 -467
-11 -866 -22 -885 -23 l-35 -2 -6 130 c-27 540 -21 808 23 1035 19 100 76 296
83 288 2 -2 36 -95 75 -208z m3066 123 c-123 -346 -414 -939 -582 -1188 -93
-137 -60 -123 -305 -134 -117 -6 -215 -8 -217 -6 -9 9 52 165 118 301 118 243
239 405 457 613 124 118 517 449 535 451 4 0 1 -17 -6 -37z m-1028 -1739 l120
-7 -301 -603 -302 -604 -169 0 -169 0 7 43 c24 150 179 527 384 930 l125 247
92 0 c51 0 146 -3 213 -6z m-598 -19 c0 -5 -69 -166 -320 -745 -73 -168 -147
-339 -164 -380 l-32 -75 -152 0 c-84 0 -332 1 -552 3 l-400 2 0 580 0 580 53
1 c28 0 315 9 637 18 619 19 930 24 930 16z m-650 -1621 c0 -3 -23 -123 -50
-267 -117 -605 -264 -1557 -321 -2072 -7 -60 -15 -115 -18 -122 -3 -6 -107
312 -231 708 -123 396 -227 724 -230 729 -3 5 -22 -96 -40 -225 -19 -129 -37
-235 -40 -235 -5 0 -41 1321 -40 1442 l0 37 133 4 c264 6 837 7 837 1z m579
-161 c-61 -248 -166 -724 -196 -883 l-27 -145 -1 -565 c0 -531 -9 -782 -25
-763 -4 4 -33 89 -65 187 l-57 180 -32 -70 c-17 -38 -63 -140 -101 -226 -39
-87 -73 -158 -77 -158 -13 0 -22 250 -21 600 2 600 41 1137 104 1425 35 164
25 151 286 374 129 111 238 201 242 201 5 0 -9 -71 -30 -157z"/>
<path d="M10030 4940 c0 -155 2 -175 21 -213 31 -59 132 -161 219 -219 64 -43
510 -273 514 -266 10 17 117 371 114 379 -3 8 -681 392 -830 470 l-38 19 0
-170z"/>
<path d="M9649 12154 c-32 -86 -61 -211 -71 -313 -12 -128 -3 -240 47 -551 28
-177 43 -312 53 -487 l7 -123 69 35 c142 71 150 94 104 295 l-32 145 -4 490
c-2 291 -7 494 -13 501 -5 6 -34 14 -63 18 -30 3 -61 9 -70 12 -11 4 -19 -3
-27 -22z"/>
<path d="M10052 11033 c4 -108 32 -231 57 -251 23 -18 183 -68 278 -86 46 -8
181 -22 300 -31 120 -8 265 -22 323 -31 124 -19 289 -70 380 -119 l65 -34 -65
60 c-149 138 -348 278 -469 329 -39 17 -156 51 -259 76 -205 49 -364 96 -503
149 -50 19 -95 35 -101 35 -6 0 -8 -38 -6 -97z"/>
</g>
</svg>
